<svg xmlns="http://www.w3.org/2000/svg" xmlns:svg="http://www.w3.org/2000/svg" xmlns:xlink="http://www.w3.org/1999/xlink" id="svg2" x="0" y="0" enable-background="new -.1 .4 28.5 28.3" version="1.1" viewBox="-0.1 0.4 28.5 28.3" xml:space="preserve"><g id="layer1" transform="translate(-290.48611,-508.59873)"><g id="g4318" transform="matrix(1.25,0,0,-1.25,284.19705,541.83045)"><path id="path3383" fill="none" stroke="#1B1B1B" stroke-miterlimit="10" stroke-width=".285" d="M13.7,17.4L22,5.7"/><path id="path3387" fill="none" stroke="#1B1B1B" stroke-miterlimit="10" stroke-width=".285" d="M13.7,17.4l10.5-3.1"/><path id="path3391" fill="none" stroke="#1B1B1B" stroke-miterlimit="10" stroke-width=".285" d="M13.7,17.4L24.5,23"/><path id="path3395" fill="none" stroke="#1B1B1B" stroke-miterlimit="10" stroke-width=".285" d="M7,9.2l15-3.4"/><path id="path3399" fill="none" stroke="#1B1B1B" stroke-miterlimit="10" stroke-width=".285" d="M13.7,17.4L8.6,23"/><g id="g3401"><path id="path3411" fill="#3878BB" d="M18.1,17.4c0-2.5-2-4.4-4.4-4.4c-2.5,0-4.4,2-4.4,4.4 c0,2.5,2,4.4,4.4,4.4C16.2,21.9,18.1,19.9,18.1,17.4"/><path id="path3415" fill="none" stroke="#1B1B1B" stroke-miterlimit="10" stroke-width=".285" d="M18.1,17.4c0-2.5-2-4.4-4.4-4.4c-2.5,0-4.4,2-4.4,4.4c0,2.5,2,4.4,4.4,4.4C16.2,21.9,18.1,19.9,18.1,17.4z"/><path id="path3419" fill="#8A8B8B" d="M23.9,5.7c0-1.1-0.9-1.9-1.9-1.9s-1.9,0.9-1.9,1.9 c0,1.1,0.9,1.9,1.9,1.9S23.9,6.8,23.9,5.7"/><path id="path3423" fill="none" stroke="#1B1B1B" stroke-miterlimit="10" stroke-width=".285" d="M23.9,5.7c0-1.1-0.9-1.9-1.9-1.9s-1.9,0.9-1.9,1.9c0,1.1,0.9,1.9,1.9,1.9S23.9,6.8,23.9,5.7z"/><path id="path3427" fill="#8A8B8B" d="M26.4,14.3c0-1.1-0.9-1.9-1.9-1.9 c-1.1,0-1.9,0.9-1.9,1.9s0.9,1.9,1.9,1.9C25.6,16.2,26.4,15.4,26.4,14.3"/><path id="path3431" fill="none" stroke="#1B1B1B" stroke-miterlimit="10" stroke-width=".285" d="M26.4,14.3c0-1.1-0.9-1.9-1.9-1.9c-1.1,0-1.9,0.9-1.9,1.9s0.9,1.9,1.9,1.9C25.6,16.2,26.4,15.4,26.4,14.3z"/><path id="path3435" fill="#EC675F" d="M27.6,23c0-1.7-1.4-3.1-3.1-3.1s-3.1,1.4-3.1,3.1 c0,1.7,1.4,3.1,3.1,3.1S27.6,24.8,27.6,23"/><path id="path3439" fill="none" stroke="#1B1B1B" stroke-miterlimit="10" stroke-width=".285" d="M27.6,23c0-1.7-1.4-3.1-3.1-3.1s-3.1,1.4-3.1,3.1c0,1.7,1.4,3.1,3.1,3.1S27.6,24.8,27.6,23z"/><path id="path3443" fill="#8A8B8B" d="M8.9,9C8.9,7.9,8.1,7,7,7C5.9,7,5,7.9,5,9 C5,10,5.9,10.9,7,10.9C8.1,10.9,8.9,10,8.9,9"/><path id="path3447" fill="none" stroke="#1B1B1B" stroke-miterlimit="10" stroke-width=".285" d="M8.9,9C8.9,7.9,8.1,7,7,7C5.9,7,5,7.9,5,9C5,10,5.9,10.9,7,10.9C8.1,10.9,8.9,10,8.9,9z"/><path id="path3451" fill="#8A8B8B" d="M9.8,24c0-1.1-0.9-1.9-1.9-1.9c-1.1,0-1.9,0.9-1.9,1.9 c0,1.1,0.9,1.9,1.9,1.9C8.9,25.9,9.8,25,9.8,24"/><g id="g3453" transform="translate(9.8843,23.877)"><path id="path3455" fill="none" stroke="#1B1B1B" stroke-miterlimit="10" stroke-width=".285" d="M-0.1,0.1C-0.1-1-0.9-1.8-2-1.8c-1.1,0-1.9,0.9-1.9,1.9C-3.9,1.2-3.1,2-2,2C-0.9,2-0.1,1.2-0.1,0.1z"/></g></g></g></g></svg>