<svg xmlns="http://www.w3.org/2000/svg" xmlns:xlink="http://www.w3.org/1999/xlink" x="0" y="0" enable-background="new 193.3 42.8 35 35" version="1.1" viewBox="193.3 42.8 35 35" xml:space="preserve"><g id="Layer_1"><path fill="#888" d="M223.3,77.8h-25c-2.8,0-5-2.2-5-5v-25c0-2.8,2.2-5,5-5h25c2.8,0,5,2.2,5,5v25 C228.3,75.6,226.1,77.8,223.3,77.8z"/><g id="icomoon-ignore_5_"><line x1="194.8" x2="194.8" y1="44.3" y2="44.3" fill="none" stroke="#449FDB"/></g><g><path fill="#FFF" d="M208.8,63.1c-0.1-0.6-0.1-1.1,0.1-1.6c0.1-0.5,0.3-0.9,0.6-1.4c0.2-0.4,0.5-0.8,0.8-1.1 c0.3-0.3,0.6-0.7,0.9-1c0.3-0.3,0.5-0.6,0.7-0.9c0.2-0.3,0.3-0.6,0.3-0.9c0-0.5-0.2-0.9-0.5-1.2s-0.7-0.4-1.3-0.4 c-0.5,0-0.9,0.1-1.3,0.3c-0.4,0.2-0.7,0.5-1.1,0.9l-2.1-1.9c0.6-0.7,1.3-1.3,2.1-1.7c0.8-0.4,1.7-0.6,2.7-0.6c0.7,0,1.4,0.1,2,0.3 c0.6,0.2,1.2,0.4,1.6,0.8c0.5,0.4,0.8,0.8,1.1,1.4c0.3,0.6,0.4,1.2,0.4,2c0,0.5-0.1,1-0.3,1.4c-0.2,0.4-0.4,0.8-0.7,1.2 c-0.3,0.4-0.6,0.7-0.9,1.1c-0.3,0.3-0.6,0.7-0.9,1.1c-0.3,0.4-0.5,0.8-0.6,1.2c-0.2,0.4-0.2,0.9-0.2,1.4H208.8z M208.2,67.1 c0-0.7,0.2-1.3,0.7-1.7c0.4-0.5,1-0.7,1.6-0.7c0.7,0,1.2,0.2,1.7,0.7c0.4,0.5,0.7,1,0.7,1.7c0,0.7-0.2,1.2-0.7,1.7 c-0.4,0.5-1,0.7-1.7,0.7c-0.7,0-1.2-0.2-1.6-0.7C208.4,68.3,208.2,67.7,208.2,67.1z"/></g></g></svg>